<svg xmlns="http://www.w3.org/2000/svg" width="150" height="150"><path d="M150 75c0 41.42-33.58 75-75 75S0 116.42 0 75 33.58 0 75 0s75 33.58 75 75z" fill="#9575cd"/><path d="M37.667 30h74.666c1.478 0 2.667 1.338 2.667 3v9c0 1.662-1.19 3-2.667 3H37.667C36.19 45 35 43.662 35 42v-9c0-1.662 1.19-3 2.667-3zm0 75h74.666c1.478 0 2.667 1.338 2.667 3v9c0 1.662-1.19 3-2.667 3H37.667C36.19 120 35 118.662 35 117v-9c0-1.662 1.19-3 2.667-3zm0-25h74.666c1.478 0 2.667 1.338 2.667 3v9c0 1.662-1.19 3-2.667 3H37.667C36.19 95 35 93.662 35 92v-9c0-1.662 1.19-3 2.667-3zm0-25h74.666c1.478 0 2.667 1.338 2.667 3v9c0 1.662-1.19 3-2.667 3H37.667C36.19 70 35 68.662 35 67v-9c0-1.662 1.19-3 2.667-3z" fill="#fff" fill-opacity=".588"/><path d="M46.142 33.477c.294 0 .564.03.81.086.252.054.502.134.753.242l-.28 1.15a5.274 5.274 0 0 0-.633-.184 2.813 2.813 0 0 0-.64-.062c-.475 0-.86.18-1.15.537-.285.355-.418.847-.396 1.477l.016.028c.176-.183.398-.326.666-.43a2.5 2.5 0 0 1 .908-.155c.698 0 1.244.248 1.638.746.397.494.596 1.126.596 1.896 0 .788-.245 1.438-.736 1.95-.487.512-1.12.768-1.896.768-.827 0-1.5-.28-2.02-.838-.518-.562-.778-1.34-.778-2.33V36.83c0-1.025.295-1.84.886-2.445.59-.605 1.343-.908 2.256-.908m-.36 3.873c-.29 0-.537.046-.74.14a1.12 1.12 0 0 0-.474.38v.522c0 .62.11 1.095.333 1.428.228.333.527.5.9.5.322 0 .58-.147.773-.44.197-.298.295-.656.295-1.075 0-.433-.098-.784-.295-1.053a.93.93 0 0 0-.79-.402" style="line-height:125%;-inkscape-font-specification:Sans Bold" font-size="11" font-weight="700" letter-spacing="0" word-spacing="0" fill="#1a1a1a" font-family="Roboto"/><path d="M44.167 58.822h.166v7.356h-.166zm1.25 0c.046 0 .083-.082.083-.184a.278.278 0 0 0-.03-.138h-1.137v.04c0 .052-.018.098-.04.098h-.085c-.023 0-.04-.046-.04-.098v-.04h-1.134a.276.276 0 0 0-.034.138c0 .102.037.184.083.184h2.334zm-2.334 7.356c-.046 0-.083.082-.083.184 0 .06.012.104.03.138h1.137v-.04c0-.052.018-.098.04-.098h.085c.023 0 .04.046.04.098v.04h1.134a.276.276 0 0 0 .034-.138c0-.102-.037-.184-.083-.184h-2.334z" fill="#1a1a1a"/></svg>