<svg xmlns="http://www.w3.org/2000/svg" width="150" height="150"><defs><filter id="a" color-interpolation-filters="sRGB"><feFlood flood-opacity=".5" flood-color="#000" result="flood"/><feComposite in2="SourceGraphic" in="flood" operator="in" result="composite1"/><feGaussianBlur in="composite" stdDeviation="2" result="blur"/><feOffset dy="3" result="offset"/><feComposite in2="offset" in="SourceGraphic" result="fbSourceGraphic"/><feColorMatrix result="fbSourceGraphicAlpha" in="fbSourceGraphic" values="0 0 0 -1 0 0 0 0 -1 0 0 0 0 -1 0 0 0 0 1 0"/><feFlood flood-opacity="0" flood-color="#000" result="flood"/><feComposite in2="fbSourceGraphic" in="flood" operator="in" result="composite1"/><feOffset result="offset"/><feComposite in2="offset" in="fbSourceGraphic" result="composite2"/></filter></defs><path d="M150 75c0 41.42-33.58 75-75 75S0 116.42 0 75 33.58 0 75 0s75 33.58 75 75z" fill="#ec407a"/><path d="M44.518 24.732A6.403 6.403 0 0 0 38.1 31.15v87.7a6.403 6.403 0 0 0 6.418 6.418h60.964a6.403 6.403 0 0 0 6.417-6.417V48.685l-23.953-23.95h-43.43z" fill="#ffcc80" filter="url(#a)"/><path d="M87.948 44.094l23.952 23.95V50.512a6.403 6.403 0 0 0-6.417-6.418H87.948z" fill-opacity=".078"/><path d="M111.9 48.683l-23.95-23.95v17.532a6.403 6.403 0 0 0 6.416 6.418H111.9z" fill="#ffe0b2"/><g fill="#fafafa"><path d="M55.75 68.583h38.503v4.278H55.75v-4.277zM55.75 77.14h38.503v4.277H55.75V77.14zM55.75 94.252v4.278H75v-4.278H55.75zM55.75 85.695h38.503v4.28H55.75v-4.28z"/></g></svg>