<svg xmlns="http://www.w3.org/2000/svg" width="1000" height="1000"><path d="M303.25 110.813c-3.707 24.104-9.906 67.503-16.656 117.218l-17.72 147.126c5.07-.565 10.217-.875 15.438-.875 40.946 0 77.728 17.765 103.094 46 9.066 5.48 17.37 11.303 24.094 17a75.406 75.406 0 0 1 28.78 9.408 70.917 70.917 0 0 1 18.033 7.28c18.383-11.184 39.97-17.624 63.062-17.624 16.91 0 33.027 3.476 47.656 9.72 3.653-1.29 7.454-1.97 11.345-1.97 3.167 0 6.267.45 9.28 1.312 9.73-14.373 26.182-23.812 44.845-23.812 26.183 0 47.992 18.607 53 43.312l96.28-225.344-480.53-128.75zM924.063 235a500.983 500.983 0 0 1 4.625 7.5c1.42-3.202 2.416-5.485 2.312-5.563-.2-.147-2.71-.858-6.938-1.937z" fill="#d5fff6"/><path d="M284.317 374.28c-6.545 0-12.978.467-19.28 1.345l-54.533 452.53 289.782 77.626 187.562-439.06c-4.28-25.61-26.52-45.126-53.344-45.126-18.662 0-35.116 9.44-44.843 23.812a33.643 33.643 0 0 0-9.28-1.312c-3.89 0-7.692.68-11.344 1.968-14.63-6.242-30.746-9.718-47.657-9.718-23.092 0-44.68 6.44-63.063 17.625a70.917 70.917 0 0 0-18.03-7.283 75.384 75.384 0 0 0-37.408-9.906c-.907 0-1.79.032-2.688.064-24.767-37.682-67.413-62.563-115.875-62.563zm338.562 625c-.928.247-1.853.48-2.782.72h2.78v-.72z" fill="#067778"/><path d="M500 0C223.858 0 0 223.858 0 500s223.858 500 500 500 500-223.858 500-500S776.142 0 500 0zM300.812 110.156l482.97 129.406L506 889.812l-289.78-77.625 84.592-702.03z" fill="#49b8a7"/></svg>