<svg xmlns="http://www.w3.org/2000/svg" width="1000" height="1000"><path d="M146.175 67.383l92.304 849.18C238.48 944.988 355.564 968 500 968c144.434 0 261.52-23.012 261.52-51.437l92.305-849.18h-707.65z" fill="#009688"/><path d="M579.39 356.9c-10.964 0-19.814 9.046-19.814 20.212 0 .698.02 1.4.088 2.08-.69-.054-1.375-.045-2.08-.045-7.506 0-14.326 3.034-19.327 7.96A77.968 77.968 0 0 0 500 377.113c-24.703 0-46.736 11.483-61.3 29.5-5.662-2.07-11.728-3.228-18.09-3.228-11.946 0-22.976 3.973-31.888 10.703-5.092-6.506-12.91-10.703-21.716-10.703-9.436 0-17.754 4.797-22.777 12.118-7.75-5.093-16.94-8.05-26.85-8.05-20.04 0-37.32 12.087-45.156 29.5-27.193 4.593-45.7 10.05-52.5 15.967-.543-.48-1.022-.935-1.414-1.416-.713-.88-1.18-1.755-1.37-2.654l.708 6.413c-.548.9-.84 1.782-.84 2.698 0 1.247.5 2.506 1.503 3.717l46.353 426.094c0 25.584 105.347 46.264 235.338 46.264 129.99 0 235.383-20.68 235.383-46.263l46.307-426.137c.99-1.204 1.503-2.434 1.503-3.67 0-.9-.27-1.774-.796-2.655l.796-7.43c0 1.222-.493 2.437-1.46 3.627-.39.48-.915.935-1.46 1.415-11.05-9.615-53.043-17.994-112.958-23.486-1.055-23.84-19.684-43.02-43.034-44.316-4.71-3.742-10.633-5.97-17.07-5.97-2.863 0-5.627.418-8.226 1.237a20.66 20.66 0 0 0 .265-3.273c0-11.166-8.895-20.212-19.86-20.212z" fill="#69f0ae"/><path d="M853.825 67.383c0 19.54-158.413 35.382-353.825 35.382-195.412 0-353.825-15.84-353.825-35.382C146.175 47.84 304.588 32 500 32c195.412 0 353.825 15.84 353.825 35.383z" fill="#00796b"/><path d="M542.857 654.038c0 18.935-15.35 34.285-34.286 34.285-18.933 0-34.283-15.35-34.283-34.285 0-18.936 15.35-34.286 34.285-34.286 18.937 0 34.287 15.35 34.287 34.286zm-160-91.18c0 7.89-6.396 14.285-14.286 14.285-7.887 0-14.283-6.396-14.283-14.286s6.396-14.286 14.285-14.286c7.89 0 14.287 6.398 14.287 14.288zm124.286-38.024a7.143 7.143 0 1 1-14.286 0 7.143 7.143 0 0 1 14.286 0z" fill="#b9f6ca"/><path d="M382.857 600c0 20.513-16.63 37.143-37.143 37.143S308.57 620.513 308.57 600s16.63-37.143 37.144-37.143 37.143 16.63 37.143 37.143zm281.43-88.57a7.143 7.143 0 1 1-14.287 0 7.143 7.143 0 0 1 14.286 0zm-28.573 134.284a7.143 7.143 0 1 1-14.285 0 7.143 7.143 0 0 1 14.283 0zm-48.57-108.57a7.143 7.143 0 1 1-14.287 0 7.143 7.143 0 0 1 14.286 0zM401.43 720a7.143 7.143 0 1 1-14.287 0 7.143 7.143 0 0 1 14.286 0zm34.284-228.57a7.143 7.143 0 1 1-14.285 0 7.143 7.143 0 0 1 14.283 0zm181.43 111.427C617.143 623.37 600.513 640 580 640s-37.143-16.63-37.143-37.143 16.63-37.143 37.143-37.143 37.143 16.63 37.143 37.143zm-240-131.427c0 14.2-11.514 25.713-25.715 25.713-14.204 0-25.717-11.513-25.717-25.714 0-14.204 11.513-25.717 25.715-25.717 14.2 0 25.713 11.513 25.713 25.715zM574.285 500c0 14.202-11.513 25.714-25.715 25.714-14.2 0-25.712-11.512-25.712-25.714 0-14.202 11.513-25.714 25.714-25.714 14.203 0 25.716 11.512 25.716 25.714zM620 762.857c0 14.202-11.513 25.714-25.714 25.714-14.202 0-25.715-11.51-25.715-25.712 0-14.2 11.515-25.714 25.717-25.714 14.2 0 25.714 11.513 25.714 25.714zm-114.286 20c0 14.202-11.512 25.714-25.714 25.714-14.202 0-25.714-11.51-25.714-25.712 0-14.2 11.512-25.714 25.714-25.714 14.202 0 25.714 11.513 25.714 25.714zm-154.286 2.857c0 9.468-7.675 17.143-17.142 17.143-9.468 0-17.143-7.675-17.143-17.143 0-9.467 7.675-17.143 17.143-17.143 9.467 0 17.142 7.678 17.142 17.145zm368.572-140c0 9.468-7.675 17.143-17.143 17.143s-17.143-7.675-17.143-17.143c0-9.467 7.675-17.143 17.143-17.143S720 636.25 720 645.716zm-100 211.43c0 9.467-7.675 17.142-17.143 17.142s-17.143-7.675-17.143-17.143S593.39 840 602.857 840 620 847.675 620 857.143zm-165.714-5.714c0 9.466-7.675 17.14-17.143 17.14S420 860.897 420 851.43c0-9.47 7.675-17.144 17.143-17.144s17.143 7.675 17.143 17.143zm232.857-80a7.143 7.143 0 1 1-14.286 0 7.143 7.143 0 0 1 14.286 0zm-140 51.427a7.143 7.143 0 1 1-14.286 0 7.143 7.143 0 0 1 14.286 0zM364.286 891.43a7.143 7.143 0 1 1-14.286 0 7.143 7.143 0 0 1 14.286 0zM547.143 900a7.143 7.143 0 1 1-14.286 0 7.143 7.143 0 0 1 14.286 0zm108.57-17.143a7.143 7.143 0 1 1-14.284 0 7.143 7.143 0 0 1 14.283 0zm-140-37.143a7.143 7.143 0 1 1-14.284 0 7.143 7.143 0 0 1 14.283 0zM304.287 674.286a7.143 7.143 0 1 1-14.286 0 7.143 7.143 0 0 1 14.286 0zM687.143 571.43a7.143 7.143 0 1 1-14.286 0 7.143 7.143 0 0 1 14.286 0zM418.57 660a7.143 7.143 0 1 1-14.284 0 7.143 7.143 0 0 1 14.285 0zm34.287-77.143a7.143 7.143 0 1 1-14.286 0 7.143 7.143 0 0 1 14.288 0zM290 517.143a7.143 7.143 0 1 1-14.286 0 7.143 7.143 0 0 1 14.286 0zm320-80a7.143 7.143 0 1 1-14.286 0 7.143 7.143 0 0 1 14.286 0zm114.286 40a7.143 7.143 0 1 1-14.286 0 7.143 7.143 0 0 1 14.286 0zM575.714 700a7.143 7.143 0 1 1-14.285 0 7.143 7.143 0 0 1 14.283 0zm-80 17.143a7.143 7.143 0 1 1-14.285 0 7.143 7.143 0 0 1 14.283 0z" fill="#b9f6ca"/><path d="M495.125 513.115a12.734 12.734 0 1 1-25.468 0 12.734 12.734 0 1 1 25.468 0zM638.943 538.583a12.734 12.734 0 1 1-25.468 0 12.734 12.734 0 1 1 25.468 0zM655.422 653.937a12.734 12.734 0 1 1-25.468 0 12.734 12.734 0 1 1 25.468 0zM555.05 778.28a12.734 12.734 0 1 1-25.47 0 12.734 12.734 0 1 1 25.47 0zM397.748 803.748a12.734 12.734 0 1 1-25.468 0 12.734 12.734 0 1 1 25.468 0zM546.06 854.684a12.734 12.734 0 1 1-25.468 0 12.734 12.734 0 1 1 25.468 0zM671.9 784.273a12.734 12.734 0 1 1-25.467 0 12.734 12.734 0 1 1 25.468 0zM417.223 712.363a12.734 12.734 0 1 1-25.468 0 12.734 12.734 0 1 1 25.468 0zM336.325 739.33a12.734 12.734 0 1 1-25.468 0 12.734 12.734 0 1 1 25.468 0zM459.17 592.515a12.734 12.734 0 1 1-25.468 0 12.734 12.734 0 1 1 25.468 0zM613.475 594.013a12.734 12.734 0 1 1-25.468 0 12.734 12.734 0 1 1 25.468 0zM718.343 508.62a12.734 12.734 0 1 1-25.468 0 12.734 12.734 0 1 1 25.468 0zM579.02 492.142a12.734 12.734 0 1 1-25.47 0 12.734 12.734 0 1 1 25.47 0zM394.75 498.134a6.74 6.74 0 1 1-13.482 0 6.74 6.74 0 1 1 13.483 0zM498.12 459.183a6.74 6.74 0 1 1-13.482 0 6.74 6.74 0 1 1 13.483 0zM532.577 580.53a6.74 6.74 0 1 1-13.483 0 6.74 6.74 0 1 1 13.483 0zM634.45 839.702a6.74 6.74 0 1 1-13.484 0 6.74 6.74 0 1 1 13.483 0zM592.502 721.352a6.74 6.74 0 1 1-13.483 0 6.74 6.74 0 1 1 13.482 0zM423.964 653.937a1.498 1.498 0 1 1-2.996 0 1.498 1.498 0 1 1 2.996 0zM459.92 734.835a1.498 1.498 0 1 1-2.997 0 1.498 1.498 0 1 1 2.996 0zM693.624 694.386a1.498 1.498 0 1 1-2.996 0 1.498 1.498 0 1 1 2.996 0zM717.594 611.99a1.498 1.498 0 1 1-2.997 0 1.498 1.498 0 1 1 2.997 0zM438.946 658.43a1.498 1.498 0 1 1-2.997 0 1.498 1.498 0 1 1 2.996 0zM474.9 715.36a1.498 1.498 0 1 1-2.996 0 1.498 1.498 0 1 1 2.996 0zM474.9 800.752a1.498 1.498 0 1 1-2.996 0 1.498 1.498 0 1 1 2.996 0zM441.942 845.695a1.498 1.498 0 1 1-2.996 0 1.498 1.498 0 1 1 2.996 0zM347.56 851.687a1.498 1.498 0 1 1-2.995 0 1.498 1.498 0 1 1 2.996 0zM328.086 793.26a1.498 1.498 0 1 1-2.997 0 1.498 1.498 0 1 1 2.996 0zM365.538 776.782a1.498 1.498 0 1 1-2.996 0 1.498 1.498 0 1 1 2.996 0zM344.565 691.39a1.498 1.498 0 1 1-2.996 0 1.498 1.498 0 1 1 2.995 0zM308.61 538.583a1.498 1.498 0 1 1-2.996 0 1.498 1.498 0 1 1 2.996 0zM311.606 484.65a1.498 1.498 0 1 1-2.996 0 1.498 1.498 0 1 1 2.996 0zM356.55 519.107a1.498 1.498 0 1 1-2.997 0 1.498 1.498 0 1 1 2.997 0zM405.987 450.195a1.498 1.498 0 1 1-2.996 0 1.498 1.498 0 1 1 2.997 0zM542.315 523.602a1.498 1.498 0 1 1-2.996 0 1.498 1.498 0 1 1 2.995 0zM647.182 474.164a1.498 1.498 0 1 1-2.996 0 1.498 1.498 0 1 1 2.996 0zM692.126 713.86a1.498 1.498 0 1 1-2.997 0 1.498 1.498 0 1 1 2.996 0zM683.886 712.363a33.707 33.707 0 1 1-67.415 0 33.707 33.707 0 1 1 67.416 0z" fill="#b9f6ca" fill-opacity=".686"/><path d="M653.924 525.1a33.707 33.707 0 1 1-67.415 0 33.707 33.707 0 1 1 67.414 0zM349.808 523.602a33.707 33.707 0 1 1-67.415 0 33.707 33.707 0 1 1 67.415 0zM490.63 856.182a33.707 33.707 0 1 1-67.415 0 33.707 33.707 0 1 1 67.415 0zM483.14 643.45a33.707 33.707 0 1 1-67.415 0 33.707 33.707 0 1 1 67.415 0zM565.536 522.104a33.707 33.707 0 1 1-67.415 0 33.707 33.707 0 1 1 67.416 0zM589.505 785.77a33.707 33.707 0 1 1-67.415 0 33.707 33.707 0 1 1 67.415 0zM367.785 740.827a33.707 33.707 0 1 1-67.414 0 33.707 33.707 0 1 1 67.415 0zM713.1 607.496a13.483 13.483 0 1 1-26.967 0 13.483 13.483 0 1 1 26.966 0zM482.39 758.805a13.483 13.483 0 1 1-26.965 0 13.483 13.483 0 1 1 26.966 0zM543.813 671.914a13.483 13.483 0 1 1-26.966 0 13.483 13.483 0 1 1 26.966 0z" fill="#b9f6ca" fill-opacity=".686"/></svg>