<svg xmlns="http://www.w3.org/2000/svg" width="1000" height="1000"><path d="M3151.676-1276.554l65.22 600c0 20.084 82.728 36.344 184.78 36.344s184.78-16.26 184.78-36.344l65.22-600h-500z" fill="#00d4aa"/><path d="M3651.676-1401.554a250 25 0 1 1-500 0 250 25 0 1 1 500 0z" fill="#008066"/><g fill="#aade87"><path d="M3751.676-1233.487l58.697 540c0 18.076 74.456 32.71 166.303 32.71 91.846 0 166.303-14.634 166.303-32.71l58.696-540h-450z"/><path d="M4201.676-1233.487a225 22.5 0 1 1-450 0 225 22.5 0 1 1 450 0z"/></g><g fill="#aade87"><path d="M3151.676 225.862l58.697 540c0 18.076 74.456 32.71 166.303 32.71 91.846 0 166.303-14.634 166.303-32.71l58.696-540h-450z"/><path d="M3601.676 225.862a225 22.5 0 1 1-450 0 225 22.5 0 1 1 450 0z"/></g><path d="M3277.42 997.143c0 11.046-8.793 20-19.638 20-10.846 0-19.638-8.954-19.638-20s8.792-20 19.638-20c10.845 0 19.637 8.954 19.637 20zM3447.142 980c0 11.046-8.792 20-19.637 20-10.846 0-19.638-8.954-19.638-20s8.792-20 19.638-20c10.845 0 19.637 8.954 19.637 20zm-189.36 35.714c0 19.725-15.7 35.715-35.068 35.715-19.367 0-35.067-15.99-35.067-35.716 0-19.724 15.7-35.714 35.067-35.714s35.067 15.99 35.067 35.714zm164.112-57.143c0 7.89-6.28 14.287-14.027 14.287-7.747 0-14.027-6.396-14.027-14.286 0-7.888 6.28-14.284 14.028-14.284 7.747 0 14.027 6.396 14.027 14.285zm-9.82 21.43c0 11.046-8.79 20-19.636 20-10.847 0-19.64-8.954-19.64-20s8.793-20 19.64-20c10.844 0 19.636 8.954 19.636 20zm-4.207 35.714c0 31.56-25.12 57.143-56.107 57.143-30.986 0-56.106-25.584-56.106-57.143 0-31.56 25.12-57.143 56.107-57.143 30.988 0 56.108 25.585 56.108 57.144zm-74.342 0c0 21.303-16.956 38.572-37.872 38.572s-37.872-17.27-37.872-38.572c0-21.302 16.956-38.57 37.872-38.57s37.872 17.268 37.872 38.57zm136.508-18.662c0 18.147-14.444 32.857-32.26 32.857-17.82 0-32.263-14.71-32.263-32.858 0-18.146 14.445-32.857 32.263-32.857 17.817 0 32.26 14.71 32.26 32.857zm81.812 18.662c0 13.807-89.58 25-200.085 25-110.503 0-200.084-11.193-200.084-25s89.58-25 200.085-25c110.505 0 200.086 11.193 200.086 25z" fill="#008066"/><path d="M146.175 67.383l92.304 849.18C238.48 944.988 355.565 968 500 968c144.434 0 261.52-23.012 261.52-51.437l92.305-849.18h-707.65z" fill="#009688"/><path d="M579.39 356.9c-10.964 0-19.814 9.046-19.814 20.212 0 .698.02 1.4.088 2.08-.69-.054-1.375-.045-2.08-.045-7.506 0-14.326 3.034-19.327 7.96A77.968 77.968 0 0 0 500 377.113c-24.703 0-46.736 11.483-61.3 29.5-5.662-2.07-11.728-3.228-18.09-3.228-11.946 0-22.976 3.973-31.888 10.703-5.092-6.506-12.91-10.703-21.716-10.703-9.436 0-17.754 4.797-22.777 12.118-7.748-5.093-16.94-8.05-26.848-8.05-20.04 0-37.32 12.087-45.157 29.5-27.193 4.593-45.7 10.05-52.5 15.967-.543-.48-1.022-.935-1.414-1.416-.713-.88-1.18-1.755-1.37-2.654l.708 6.413c-.548.9-.84 1.782-.84 2.698 0 1.246.5 2.505 1.503 3.716l46.352 426.094c0 25.583 105.347 46.263 235.338 46.263 129.99 0 235.382-20.68 235.382-46.263l46.307-426.138c.99-1.204 1.503-2.434 1.503-3.67 0-.9-.27-1.774-.796-2.655l.796-7.43c0 1.222-.493 2.437-1.46 3.627-.39.48-.915.935-1.46 1.415-11.05-9.615-53.043-17.994-112.958-23.486-1.055-23.84-19.684-43.02-43.034-44.316-4.71-3.742-10.634-5.97-17.07-5.97-2.864 0-5.628.418-8.227 1.237a20.66 20.66 0 0 0 .265-3.273c0-11.166-8.894-20.212-19.858-20.212z" fill="#69f0ae"/><path d="M853.825 67.383c0 19.54-158.413 35.382-353.825 35.382-195.412 0-353.825-15.84-353.825-35.382C146.175 47.84 304.588 32 500 32c195.412 0 353.825 15.84 353.825 35.383z" fill="#00796b"/><path d="M542.857 654.038c0 18.935-15.35 34.285-34.286 34.285-18.934 0-34.284-15.35-34.284-34.285 0-18.936 15.35-34.286 34.285-34.286 18.937 0 34.287 15.35 34.287 34.286zM382.857 562.857c0 7.89-6.396 14.286-14.286 14.286-7.888 0-14.284-6.396-14.284-14.286s6.396-14.286 14.285-14.286c7.89 0 14.287 6.397 14.287 14.287zM507.143 524.834a7.143 7.143 0 1 1-14.286 0 7.143 7.143 0 0 1 14.286 0z" fill="#afc"/><path d="M382.857 600c0 20.513-16.63 37.143-37.143 37.143S308.57 620.513 308.57 600s16.63-37.143 37.144-37.143 37.143 16.63 37.143 37.143zM664.286 511.43a7.143 7.143 0 1 1-14.286 0 7.143 7.143 0 0 1 14.286 0zM635.714 645.714a7.143 7.143 0 1 1-14.285 0 7.143 7.143 0 0 1 14.284 0zM587.143 537.143a7.143 7.143 0 1 1-14.286 0 7.143 7.143 0 0 1 14.286 0zM401.43 720a7.143 7.143 0 1 1-14.287 0 7.143 7.143 0 0 1 14.286 0zM435.714 491.43a7.143 7.143 0 1 1-14.285 0 7.143 7.143 0 0 1 14.284 0zM617.143 602.857C617.143 623.37 600.513 640 580 640s-37.143-16.63-37.143-37.143 16.63-37.143 37.143-37.143 37.143 16.63 37.143 37.143zM377.143 471.43c0 14.2-11.513 25.713-25.714 25.713-14.203 0-25.716-11.513-25.716-25.714 0-14.203 11.513-25.716 25.715-25.716 14.2 0 25.713 11.513 25.713 25.715zM574.286 500c0 14.202-11.513 25.714-25.715 25.714-14.2 0-25.713-11.512-25.713-25.714 0-14.202 11.513-25.714 25.714-25.714 14.203 0 25.716 11.512 25.716 25.714zM620 762.857c0 14.202-11.513 25.714-25.714 25.714-14.202 0-25.715-11.51-25.715-25.713 0-14.2 11.514-25.714 25.716-25.714 14.2 0 25.714 11.513 25.714 25.714zM505.714 782.857c0 14.202-11.512 25.714-25.714 25.714-14.202 0-25.714-11.51-25.714-25.713 0-14.2 11.512-25.714 25.714-25.714 14.202 0 25.714 11.513 25.714 25.714zM351.428 785.714c0 9.468-7.675 17.143-17.142 17.143-9.468 0-17.143-7.675-17.143-17.143 0-9.467 7.675-17.143 17.143-17.143 9.467 0 17.142 7.677 17.142 17.144zM720 645.714c0 9.468-7.675 17.143-17.143 17.143s-17.143-7.675-17.143-17.143c0-9.467 7.675-17.143 17.143-17.143S720 636.248 720 645.715zM620 857.143c0 9.468-7.675 17.143-17.143 17.143s-17.143-7.675-17.143-17.143S593.39 840 602.857 840 620 847.675 620 857.143zM454.286 851.43c0 9.466-7.675 17.14-17.143 17.14S420 860.897 420 851.43c0-9.47 7.675-17.144 17.143-17.144s17.143 7.675 17.143 17.143zM687.143 771.43a7.143 7.143 0 1 1-14.286 0 7.143 7.143 0 0 1 14.286 0zM547.143 822.857a7.143 7.143 0 1 1-14.286 0 7.143 7.143 0 0 1 14.286 0zM364.286 891.43a7.143 7.143 0 1 1-14.286 0 7.143 7.143 0 0 1 14.286 0zM547.143 900a7.143 7.143 0 1 1-14.286 0 7.143 7.143 0 0 1 14.286 0zM655.714 882.857a7.143 7.143 0 1 1-14.285 0 7.143 7.143 0 0 1 14.284 0zM515.714 845.714a7.143 7.143 0 1 1-14.285 0 7.143 7.143 0 0 1 14.284 0zM304.286 674.286a7.143 7.143 0 1 1-14.286 0 7.143 7.143 0 0 1 14.286 0zM687.143 571.43a7.143 7.143 0 1 1-14.286 0 7.143 7.143 0 0 1 14.286 0zM418.57 660a7.143 7.143 0 1 1-14.284 0 7.143 7.143 0 0 1 14.285 0zM452.857 582.857a7.143 7.143 0 1 1-14.286 0 7.143 7.143 0 0 1 14.287 0zM290 517.143a7.143 7.143 0 1 1-14.286 0 7.143 7.143 0 0 1 14.286 0zM610 437.143a7.143 7.143 0 1 1-14.286 0 7.143 7.143 0 0 1 14.286 0zM724.286 477.143a7.143 7.143 0 1 1-14.286 0 7.143 7.143 0 0 1 14.286 0zM575.714 700a7.143 7.143 0 1 1-14.285 0 7.143 7.143 0 0 1 14.284 0zM495.714 717.143a7.143 7.143 0 1 1-14.285 0 7.143 7.143 0 0 1 14.284 0z" fill="#afc"/></svg>