<svg xmlns="http://www.w3.org/2000/svg" width="150" height="150"><defs><filter id="a" color-interpolation-filters="sRGB"><feFlood flood-opacity=".5" flood-color="#000" result="flood"/><feComposite in2="SourceGraphic" in="flood" operator="in" result="composite1"/><feGaussianBlur in="composite" stdDeviation="6" result="blur"/><feOffset dy="5" result="offset"/><feComposite in2="offset" in="SourceGraphic" result="composite2"/></filter></defs><path d="M150 75c0 41.42-33.58 75-75 75S0 116.42 0 75 33.58 0 75 0s75 33.58 75 75z" fill="#ffd54f"/><g transform="matrix(.22332 0 0 .22332 108.387 26.8)" fill="#067778" filter="url(#a)"><path d="M-384.5 135.825h470c8.31 0 15 6.69 15 15v130c0 8.31-6.69 15-15 15h-470c-8.31 0-15-6.69-15-15v-130c0-8.31 6.69-15 15-15z"/><g style="line-height:125%;-inkscape-font-specification:Sans Bold" font-size="75.928" font-weight="700" letter-spacing=".44" word-spacing="0" font-family="Roboto" text-anchor="middle" fill="#fff"><path d="M-311.548 246.102h-9.65v-51.196h-19.633v51.196h-9.65V185.55h38.932V246.1M-276.288 233.043h-16.89l-3.27 13.06h-9.75l16.557-60.554h9.88l16.493 60.552h-9.75l-3.27-13.06m-14.51-9.523h12.13l-5.95-23.79h-.198l-5.982 23.79M-248.696 224.143v21.96h-9.65v-60.554h19.168c5.53 0 9.882 1.774 13.055 5.322 3.173 3.55 4.76 8.22 4.76 14.016 0 5.794-1.587 10.452-4.76 13.973-3.173 3.523-7.524 5.283-13.055 5.283h-9.518m0-9.357h9.518c2.688 0 4.727-.915 6.115-2.745 1.388-1.857 2.082-4.213 2.082-7.07 0-2.91-.695-5.31-2.083-7.194-1.366-1.913-3.404-2.87-6.115-2.87h-9.518v19.88M-187.98 233.043h-16.887l-3.272 13.06h-9.75l16.56-60.554h9.88l16.493 60.552h-9.75l-3.272-13.06m-14.508-9.523h12.13l-5.95-23.79h-.198l-5.982 23.79M-157.445 185.55l12.262 44.623h.198l12.36-44.624h12.626V246.1h-9.65v-18.05l.926-26.74-.2-.043-12.888 44.832h-6.478l-12.823-44.666-.2.04.927 26.576v18.05h-9.65V185.55h12.59M-80.97 219.485h-19.93v17.3h23.3v9.317h-32.95V185.55h32.883v9.356H-100.9v15.222h19.93v9.357M-37.383 194.906H-51v51.196h-9.65v-51.196H-74.2v-9.357h36.817v9.356M-21.986 224.143v21.96h-9.65v-60.554h19.168c5.53 0 9.882 1.774 13.055 5.322 3.173 3.55 4.76 8.22 4.76 14.016 0 5.794-1.587 10.452-4.76 13.973-3.173 3.523-7.524 5.283-13.055 5.283h-9.518m0-9.357h9.518c2.69 0 4.727-.915 6.115-2.745 1.388-1.857 2.082-4.213 2.082-7.07 0-2.91-.695-5.31-2.083-7.194-1.366-1.913-3.404-2.87-6.115-2.87h-9.518v19.88M41.796 185.55h9.684V246.1h-9.684V205.72l-.198-.042-19.4 40.424H12.58V185.55h9.618v40.34l.198.04 19.4-40.38" style="text-align:center;line-height:0%;-inkscape-font-specification:Roboto Bold"/></g></g><path d="M70.504 84.922l.25 12.24 2.622-2.52 2.873 6.168 1.897-.55-3.047-6.494 4.396-.15z" stroke="#fff" stroke-width=".25" stroke-linecap="round" stroke-linejoin="round"/></svg>