<svg xmlns="http://www.w3.org/2000/svg" width="150" height="150"><defs><filter id="a" color-interpolation-filters="sRGB"><feFlood flood-opacity=".5" flood-color="#000" result="flood"/><feComposite in2="SourceGraphic" in="flood" operator="in" result="composite1"/><feGaussianBlur in="composite" stdDeviation="6" result="blur"/><feOffset dy="5" result="offset"/><feComposite in2="offset" in="SourceGraphic" result="composite2"/></filter></defs><path d="M150 75c0 41.42-33.58 75-75 75S0 116.42 0 75 33.58 0 75 0s75 33.58 75 75z" fill="#9ccc65"/><g transform="translate(108.386 26.802) scale(.22332)" fill="#067778" filter="url(#a)"><path d="M-384.5 135.825h470c8.31 0 15 6.69 15 15v130c0 8.31-6.69 15-15 15h-470c-8.31 0-15-6.69-15-15v-130c0-8.31 6.69-15 15-15z"/><path d="M-311.548 246.102h-9.65v-51.196h-19.633v51.196h-9.65V185.55h38.93v60.55m35.262-13.057h-16.89l-3.27 13.06h-9.75l16.557-60.554h9.88l16.492 60.55h-9.75l-3.27-13.06m-14.51-9.522h12.13l-5.95-23.79h-.198l-5.982 23.79m42.102.625v21.96h-9.65V185.55h19.168c5.53 0 9.882 1.773 13.055 5.32 3.173 3.55 4.76 8.22 4.76 14.017 0 5.794-1.587 10.452-4.76 13.973-3.173 3.523-7.524 5.283-13.055 5.283h-9.518m0-9.357h9.518c2.688 0 4.727-.915 6.115-2.745 1.388-1.856 2.082-4.212 2.082-7.07 0-2.91-.696-5.31-2.084-7.193-1.366-1.913-3.404-2.87-6.115-2.87h-9.517v19.88m60.717 18.256h-16.887l-3.272 13.06h-9.75l16.56-60.554h9.88l16.494 60.55h-9.75l-3.272-13.06m-14.508-9.522h12.13l-5.95-23.79h-.198l-5.982 23.79m45.04-37.968l12.263 44.623h.198l12.36-44.624H-120v60.55h-9.65v-18.05l.927-26.74-.2-.043-12.888 44.832h-6.48l-12.822-44.667-.2.04.927 26.576v18.05h-9.65v-60.55h12.59m76.475 33.935h-19.93v17.3h23.3v9.317h-32.95V185.55h32.883v9.356H-100.9v15.222h19.93v9.357m43.587-24.58H-51v51.197h-9.65v-51.196H-74.2v-9.357h36.817v9.355m15.397 29.238v21.96h-9.65V185.55h19.168c5.53 0 9.882 1.773 13.055 5.32 3.173 3.55 4.76 8.22 4.76 14.017 0 5.794-1.587 10.452-4.76 13.973-3.173 3.523-7.524 5.283-13.055 5.283h-9.518m0-9.357h9.518c2.69 0 4.727-.915 6.115-2.745 1.388-1.856 2.082-4.212 2.082-7.07 0-2.91-.696-5.31-2.084-7.193-1.366-1.913-3.404-2.87-6.115-2.87h-9.517v19.88m63.783-29.237h9.684v60.55h-9.684v-40.38l-.198-.042-19.4 40.424H12.58V185.55h9.618v40.34l.198.04 19.4-40.38" style="text-align:center;line-height:0%;-inkscape-font-specification:Roboto Bold" font-size="75.928" font-weight="700" letter-spacing=".44" word-spacing="0" text-anchor="middle" fill="#fff" font-family="Roboto"/></g></svg>