<svg xmlns="http://www.w3.org/2000/svg" width="150" height="150"><defs><filter id="a" color-interpolation-filters="sRGB"><feFlood flood-opacity=".55" flood-color="#000" result="flood"/><feComposite in2="SourceGraphic" in="flood" operator="in" result="composite1"/><feGaussianBlur in="composite" stdDeviation="1" result="blur"/><feOffset dy="2" result="offset"/><feComposite in2="offset" in="SourceGraphic" result="composite2"/></filter></defs><path d="M150 75c0 41.42-33.58 75-75 75S0 116.42 0 75 33.58 0 75 0s75 33.58 75 75z" fill="#fea" fill-rule="evenodd"/><g transform="matrix(1.58256 0 0 1.57973 -15.432 -72.315)" filter="url(#a)"><path d="M21.563 79.643h71.16a2.328 2.328 0 0 1 2.333 2.333v22.554a2.328 2.328 0 0 1-2.333 2.333h-71.16a2.328 2.328 0 0 1-2.333-2.333V81.976a2.328 2.328 0 0 1 2.333-2.333z" fill="#067778"/><g style="text-align:center;line-height:0%;-inkscape-font-specification:Roboto Bold" font-size="11.105" font-weight="700" letter-spacing="-.833" word-spacing="0" text-anchor="middle" fill="#fff" font-family="Roboto"><path d="M35.84 97.43h-1.497v-7.063H31.3v7.063h-1.497v-8.354h6.037v8.354"/><path d="M40.46 95.628h-2.62l-.507 1.802H35.82l2.57-8.354h1.53l2.558 8.354h-1.512l-.507-1.802m-2.25-1.314h1.88l-.924-3.282h-.03l-.928 3.282"/><path d="M43.89 94.4v3.03h-1.497v-8.354h2.972c.858 0 1.532.245 2.024.734.49.49.736 1.134.736 1.934s-.246 1.442-.738 1.928c-.493.485-1.167.728-2.025.728H43.89m0-1.29h1.475c.417 0 .733-.127.948-.38.215-.256.323-.58.323-.975 0-.4-.108-.732-.323-.992-.212-.264-.528-.396-.948-.396H43.89v2.742m7.703 2.518h-2.618l-.508 1.802h-1.51l2.566-8.354h1.532l2.558 8.354H52.1l-.507-1.802m-2.25-1.314h1.882l-.923-3.282h-.03l-.928 3.282"/><path d="M55.48 89.076l1.9 6.156h.032l1.916-6.156h1.958v8.354H59.79v-2.49l.143-3.69-.03-.005-2 6.185H56.9l-1.99-6.162-.03.005.144 3.667v2.49h-1.497v-8.354h1.953m11.01 4.682H63.4v2.387h3.612v1.285h-5.11v-8.354h5.1v1.29H63.4v2.1h3.09v1.292"/><path d="M72.4 90.367h-2.11v7.063h-1.497v-7.063H66.69v-1.29h5.71v1.29m1.54 4.033v3.03h-1.497v-8.354h2.972c.858 0 1.533.245 2.025.734.492.49.738 1.134.738 1.934s-.246 1.442-.738 1.928c-.492.485-1.167.728-2.025.728H73.94m0-1.29h1.475c.417 0 .733-.127.95-.38.214-.256.32-.58.32-.975 0-.4-.106-.732-.32-.992-.213-.264-.53-.396-.95-.396H73.94v2.742m9.04-4.034h1.503v8.354H82.98v-5.572l-.03-.005-3.007 5.577H78.45v-8.354h1.493v5.565l.03.008 3.008-5.57"/></g></g><path d="M64.048 88.25l-.27 28.135 6.872-6.674 6.674 12.04 4.768-3.02-6.993-11.18 11.122.563z" stroke="#fff" stroke-width=".556"/></svg>