<svg version="1" xmlns="http://www.w3.org/2000/svg" width="933.333" height="933.333" viewBox="0 0 700.000000 700.000000"><path d="M279 23.6c-77.2 2.5-142.8 9.1-165.8 16.6-6 2-11.8 6-10.9 7.6.3.4 15 134.3 32.7 297.7 17.8 163.4 32.8 298.1 33.4 299.5 8.2 18 87.6 32 181.6 32s173.4-14 181.6-32c.6-1.4 15.6-136.1 33.4-299.5 17.7-163.4 32.4-297.3 32.7-297.7.9-1.6-4.9-5.6-10.9-7.6-18.5-6-59-10.9-122.3-14.8-23.2-1.4-157.7-2.7-185.5-1.8zm133 227.9c3.9 2 6.7 5.9 7.5 10.3l.6 3.8h5.2c3.3 0 6.7.8 9.4 2.2 2.3 1.2 5.1 2.2 6.2 2.2 3.6 0 11 3.9 15.7 8.2 5.2 4.8 8.2 10.1 9.9 17.3l1.2 5 14.9 1.7c28 3.1 49.4 7.4 58.9 11.9 2.4 1.1 4.9 1.8 5.5 1.4.5-.3 1 .1 1 .9 0 5-33.2 306-34 308.1-6.1 16.1-80.4 29.5-164 29.5-85.4 0-160.2-13.9-164.4-30.5-.6-2.4-33.6-304-33.6-307.1 0-.8.5-1.2 1.1-.9.6.4 3.8-.5 7.1-2s11.4-3.9 18-5.3c11.6-2.6 12.2-2.8 14.3-6.2 3.6-5.6 9.4-10.8 15.4-13.8 7.6-3.7 19.9-3.9 27.8-.3l5.3 2.3 3.5-3c3.2-2.8 8.9-5.2 12.5-5.2 3.4 0 9.1 2.2 12 4.6l3 2.6 5.2-2.6c8.2-4 14.9-5 23.1-3.7l6.9 1.1 6-5.5c6.7-6.2 14.9-10.8 23.5-13 11.1-2.9 26.6-1.4 36.1 3.4 3.7 1.9 3.8 1.9 6.5-.1 1.5-1.1 4.9-2.6 7.5-3.2 3.9-1 4.7-1.7 5.2-4.2 2-9.4 11.6-14.2 20-9.9z"/></svg>