<svg xmlns="http://www.w3.org/2000/svg" height="150" width="150" enable-background="new"><defs><filter id="b" color-interpolation-filters="sRGB" x="-.25" width="1.5" y="-.25" height="1.5"><feGaussianBlur stdDeviation="5" result="result1"/><feComposite in2="result1" operator="arithmetic" k2="2" in="result1" result="fbSourceGraphic"/><feColorMatrix result="fbSourceGraphicAlpha" in="fbSourceGraphic" values="0 0 0 -1 0 0 0 0 -1 0 0 0 0 -1 0 0 0 0 1 0"/><feGaussianBlur stdDeviation="5" result="result1" in="fbSourceGraphic"/><feTurbulence type="fractalNoise" baseFrequency=".1" result="result2"/><feDisplacementMap in2="result2" scale="5" yChannelSelector="G" xChannelSelector="R" result="result3" in="result1"/><feComposite in2="result3" operator="atop"/></filter><filter id="a"><feBlend mode="multiply" in2="BackgroundImage"/></filter></defs><path d="M150 75c0 41.42-33.58 75-75 75S0 116.42 0 75 33.58 0 75 0s75 33.58 75 75z" fill="#945b92" fill-rule="evenodd"/><g transform="translate(-153.14 -16.518)" fill="#4d4d4d" filter="url(#b)" opacity=".5"><path d="M263.14 60.268v76.25c0 2.77-2.23 5-5 5h-60c-2.77 0-5-2.23-5-5v-90c0-2.77 2.23-5 5-5h46.282"/><path d="M263.14 60.268h-13.718c-2.77 0-5-2.23-5-5v-13.75M207.14 83.518h42c2.217 0 4 1.784 4 4s-1.783 4-4 4h-42a3.99 3.99 0 0 1-4-4c0-2.216 1.785-4 4-4zM207.214 99.643h22c2.216 0 4 1.784 4 4s-1.784 4-4 4h-22a3.99 3.99 0 0 1-4-4c0-2.216 1.784-4 4-4zM207.214 115.643h32c2.216 0 4 1.784 4 4s-1.784 4-4 4h-32a3.99 3.99 0 0 1-4-4c0-2.216 1.784-4 4-4zM207.214 66.714h27c2.216 0 4 1.784 4 4s-1.784 4-4 4h-27a3.99 3.99 0 0 1-4-4c0-2.216 1.784-4 4-4z"/></g><path d="M110 43.75V120c0 2.77-2.23 5-5 5H45c-2.77 0-5-2.23-5-5V30c0-2.77 2.23-5 5-5h46.28" fill="#ffb380"/><path d="M110 43.75H96.28c-2.77 0-5-2.23-5-5V25M54 67h42c2.216 0 4 1.784 4 4s-1.784 4-4 4H54a3.99 3.99 0 0 1-4-4c0-2.216 1.784-4 4-4zM54.074 83.125h22c2.216 0 4 1.784 4 4s-1.784 4-4 4h-22a3.99 3.99 0 0 1-4-4c0-2.216 1.784-4 4-4zM54.074 99.125h32c2.216 0 4 1.784 4 4s-1.784 4-4 4h-32a3.99 3.99 0 0 1-4-4c0-2.216 1.784-4 4-4zM54.074 50.196h27c2.216 0 4 1.784 4 4s-1.784 4-4 4h-27a3.99 3.99 0 0 1-4-4c0-2.216 1.784-4 4-4z" fill="#f60"/></svg>