<svg xmlns="http://www.w3.org/2000/svg" width="150" height="150"><defs><filter id="a" color-interpolation-filters="sRGB"><feFlood flood-opacity=".5" flood-color="#000" result="flood"/><feComposite in2="SourceGraphic" in="flood" operator="in" result="composite1"/><feGaussianBlur in="composite" stdDeviation="2" result="blur"/><feOffset dy="3" result="offset"/><feComposite in2="offset" in="SourceGraphic" result="composite2"/></filter></defs><path d="M150 75c0 41.42-33.58 75-75 75S0 116.42 0 75 33.58 0 75 0s75 33.58 75 75z" fill="#4fc3f7"/><g filter="url(#a)"><path d="M44.518 24.732A6.403 6.403 0 0 0 38.1 31.15v87.7a6.403 6.403 0 0 0 6.418 6.418h60.964a6.403 6.403 0 0 0 6.417-6.417V48.684l-23.952-23.95h-43.43z" fill="#f57c00"/><path d="M111.9 48.683l-23.952-23.95v17.532a6.403 6.403 0 0 0 6.417 6.418H111.9z" fill="#ffb74d"/><g fill="#fff"><path d="M55.748 68.583h38.504v4.278H55.748zM55.748 77.14h38.504v4.277H55.748zM55.748 94.252v4.278H75v-4.278H55.748zM55.748 85.695h38.504v4.28H55.748z"/></g></g></svg>