<?xml version="1.0" encoding="UTF-8" standalone="no"?>
<svg
   xmlns:dc="http://purl.org/dc/elements/1.1/"
   xmlns:cc="http://creativecommons.org/ns#"
   xmlns:rdf="http://www.w3.org/1999/02/22-rdf-syntax-ns#"
   xmlns:svg="http://www.w3.org/2000/svg"
   xmlns="http://www.w3.org/2000/svg"
   xmlns:sodipodi="http://sodipodi.sourceforge.net/DTD/sodipodi-0.dtd"
   xmlns:inkscape="http://www.inkscape.org/namespaces/inkscape"
   width="1000"
   height="1000"
   id="svg2"
   version="1.1"
   inkscape:version="0.48.4 r9939"
   sodipodi:docname="LOGO.svg">
  <metadata
     id="metadata36">
    <rdf:RDF>
      <cc:Work
         rdf:about="">
        <dc:format>image/svg+xml</dc:format>
        <dc:type
           rdf:resource="http://purl.org/dc/dcmitype/StillImage" />
      </cc:Work>
    </rdf:RDF>
  </metadata>
  <defs
     id="defs34" />
  <sodipodi:namedview
     pagecolor="#ffffff"
     bordercolor="#666666"
     borderopacity="1"
     objecttolerance="10"
     gridtolerance="10"
     guidetolerance="10"
     inkscape:pageopacity="0"
     inkscape:pageshadow="2"
     inkscape:window-width="1920"
     inkscape:window-height="965"
     id="namedview32"
     showgrid="false"
     inkscape:zoom="0.6675088"
     inkscape:cx="401.39631"
     inkscape:cy="431.45369"
     inkscape:window-x="0"
     inkscape:window-y="30"
     inkscape:window-maximized="1"
     inkscape:current-layer="svg2" />
  <path
     d="M146.175 67.383l92.304 849.18C238.48 944.988 355.565 968 500 968c144.434 0 261.52-23.012 261.52-51.437l92.305-849.18h-707.65z"
     fill="#009688"
     id="path22" />
  <path
     d="M579.39 356.9c-10.964 0-19.814 9.046-19.814 20.212 0 .698.02 1.4.088 2.08-.69-.054-1.375-.045-2.08-.045-7.506 0-14.326 3.034-19.327 7.96A77.968 77.968 0 0 0 500 377.113c-24.703 0-46.736 11.483-61.3 29.5-5.662-2.07-11.728-3.228-18.09-3.228-11.946 0-22.976 3.973-31.888 10.703-5.092-6.506-12.91-10.703-21.716-10.703-9.436 0-17.754 4.797-22.777 12.118-7.748-5.093-16.94-8.05-26.848-8.05-20.04 0-37.32 12.087-45.157 29.5-27.193 4.593-45.7 10.05-52.5 15.967-.543-.48-1.022-.935-1.414-1.416-.713-.88-1.18-1.755-1.37-2.654l.708 6.413c-.548.9-.84 1.782-.84 2.698 0 1.246.5 2.505 1.503 3.716l46.352 426.094c0 25.583 105.347 46.263 235.338 46.263 129.99 0 235.382-20.68 235.382-46.263l46.307-426.138c.99-1.204 1.503-2.434 1.503-3.67 0-.9-.27-1.774-.796-2.655l.796-7.43c0 1.222-.493 2.437-1.46 3.627-.39.48-.915.935-1.46 1.415-11.05-9.615-53.043-17.994-112.958-23.486-1.055-23.84-19.684-43.02-43.034-44.316-4.71-3.742-10.634-5.97-17.07-5.97-2.864 0-5.628.418-8.227 1.237a20.66 20.66 0 0 0 .265-3.273c0-11.166-8.894-20.212-19.858-20.212z"
     fill="#69f0ae"
     id="path24" />
  <path
     d="M853.825 67.383c0 19.54-158.413 35.382-353.825 35.382-195.412 0-353.825-15.84-353.825-35.382C146.175 47.84 304.588 32 500 32c195.412 0 353.825 15.84 353.825 35.383z"
     fill="#00796b"
     id="path26" />
  <path
     d="M542.857 654.038c0 18.935-15.35 34.285-34.286 34.285-18.934 0-34.284-15.35-34.284-34.285 0-18.936 15.35-34.286 34.285-34.286 18.937 0 34.287 15.35 34.287 34.286zM382.857 562.857c0 7.89-6.396 14.286-14.286 14.286-7.888 0-14.284-6.396-14.284-14.286s6.396-14.286 14.285-14.286c7.89 0 14.287 6.397 14.287 14.287zM507.143 524.834a7.143 7.143 0 1 1-14.286 0 7.143 7.143 0 0 1 14.286 0z"
     fill="#afc"
     id="path28"
     style="fill:#b9f6ca" />
  <path
     d="M382.857 600c0 20.513-16.63 37.143-37.143 37.143S308.57 620.513 308.57 600s16.63-37.143 37.144-37.143 37.143 16.63 37.143 37.143zM664.286 511.43a7.143 7.143 0 1 1-14.286 0 7.143 7.143 0 0 1 14.286 0zM635.714 645.714a7.143 7.143 0 1 1-14.285 0 7.143 7.143 0 0 1 14.284 0zM587.143 537.143a7.143 7.143 0 1 1-14.286 0 7.143 7.143 0 0 1 14.286 0zM401.43 720a7.143 7.143 0 1 1-14.287 0 7.143 7.143 0 0 1 14.286 0zM435.714 491.43a7.143 7.143 0 1 1-14.285 0 7.143 7.143 0 0 1 14.284 0zM617.143 602.857C617.143 623.37 600.513 640 580 640s-37.143-16.63-37.143-37.143 16.63-37.143 37.143-37.143 37.143 16.63 37.143 37.143zM377.143 471.43c0 14.2-11.513 25.713-25.714 25.713-14.203 0-25.716-11.513-25.716-25.714 0-14.203 11.513-25.716 25.715-25.716 14.2 0 25.713 11.513 25.713 25.715zM574.286 500c0 14.202-11.513 25.714-25.715 25.714-14.2 0-25.713-11.512-25.713-25.714 0-14.202 11.513-25.714 25.714-25.714 14.203 0 25.716 11.512 25.716 25.714zM620 762.857c0 14.202-11.513 25.714-25.714 25.714-14.202 0-25.715-11.51-25.715-25.713 0-14.2 11.514-25.714 25.716-25.714 14.2 0 25.714 11.513 25.714 25.714zM505.714 782.857c0 14.202-11.512 25.714-25.714 25.714-14.202 0-25.714-11.51-25.714-25.713 0-14.2 11.512-25.714 25.714-25.714 14.202 0 25.714 11.513 25.714 25.714zM351.428 785.714c0 9.468-7.675 17.143-17.142 17.143-9.468 0-17.143-7.675-17.143-17.143 0-9.467 7.675-17.143 17.143-17.143 9.467 0 17.142 7.677 17.142 17.144zM720 645.714c0 9.468-7.675 17.143-17.143 17.143s-17.143-7.675-17.143-17.143c0-9.467 7.675-17.143 17.143-17.143S720 636.248 720 645.715zM620 857.143c0 9.468-7.675 17.143-17.143 17.143s-17.143-7.675-17.143-17.143S593.39 840 602.857 840 620 847.675 620 857.143zM454.286 851.43c0 9.466-7.675 17.14-17.143 17.14S420 860.897 420 851.43c0-9.47 7.675-17.144 17.143-17.144s17.143 7.675 17.143 17.143zM687.143 771.43a7.143 7.143 0 1 1-14.286 0 7.143 7.143 0 0 1 14.286 0zM547.143 822.857a7.143 7.143 0 1 1-14.286 0 7.143 7.143 0 0 1 14.286 0zM364.286 891.43a7.143 7.143 0 1 1-14.286 0 7.143 7.143 0 0 1 14.286 0zM547.143 900a7.143 7.143 0 1 1-14.286 0 7.143 7.143 0 0 1 14.286 0zM655.714 882.857a7.143 7.143 0 1 1-14.285 0 7.143 7.143 0 0 1 14.284 0zM515.714 845.714a7.143 7.143 0 1 1-14.285 0 7.143 7.143 0 0 1 14.284 0zM304.286 674.286a7.143 7.143 0 1 1-14.286 0 7.143 7.143 0 0 1 14.286 0zM687.143 571.43a7.143 7.143 0 1 1-14.286 0 7.143 7.143 0 0 1 14.286 0zM418.57 660a7.143 7.143 0 1 1-14.284 0 7.143 7.143 0 0 1 14.285 0zM452.857 582.857a7.143 7.143 0 1 1-14.286 0 7.143 7.143 0 0 1 14.287 0zM290 517.143a7.143 7.143 0 1 1-14.286 0 7.143 7.143 0 0 1 14.286 0zM610 437.143a7.143 7.143 0 1 1-14.286 0 7.143 7.143 0 0 1 14.286 0zM724.286 477.143a7.143 7.143 0 1 1-14.286 0 7.143 7.143 0 0 1 14.286 0zM575.714 700a7.143 7.143 0 1 1-14.285 0 7.143 7.143 0 0 1 14.284 0zM495.714 717.143a7.143 7.143 0 1 1-14.285 0 7.143 7.143 0 0 1 14.284 0z"
     fill="#afc"
     id="path30"
     style="fill:#b9f6ca" />
  <path
     transform="translate(1041.9339,111.60902)"
     sodipodi:type="arc"
     style="fill:#b9f6ca;fill-opacity:0.68627450999999995;stroke:none"
     id="path3013-1"
     sodipodi:cx="-559.54321"
     sodipodi:cy="401.50601"
     sodipodi:rx="12.733914"
     sodipodi:ry="12.733914"
     d="m -546.8093,401.50601 a 12.733914,12.733914 0 1 1 -25.46783,0 12.733914,12.733914 0 1 1 25.46783,0 z" />
  <path
     transform="translate(1185.7522,137.07685)"
     sodipodi:type="arc"
     style="fill:#b9f6ca;fill-opacity:0.68627450999999995;stroke:none"
     id="path3013-7"
     sodipodi:cx="-559.54321"
     sodipodi:cy="401.50601"
     sodipodi:rx="12.733914"
     sodipodi:ry="12.733914"
     d="m -546.8093,401.50601 a 12.733914,12.733914 0 1 1 -25.46783,0 12.733914,12.733914 0 1 1 25.46783,0 z" />
  <path
     transform="translate(1202.2314,252.43114)"
     sodipodi:type="arc"
     style="fill:#b9f6ca;fill-opacity:0.68627450999999995;stroke:none"
     id="path3013-4"
     sodipodi:cx="-559.54321"
     sodipodi:cy="401.50601"
     sodipodi:rx="12.733914"
     sodipodi:ry="12.733914"
     d="m -546.8093,401.50601 a 12.733914,12.733914 0 1 1 -25.46783,0 12.733914,12.733914 0 1 1 25.46783,0 z" />
  <path
     transform="translate(1101.8582,376.77406)"
     sodipodi:type="arc"
     style="fill:#b9f6ca;fill-opacity:0.68627450999999995;stroke:none"
     id="path3013-6"
     sodipodi:cx="-559.54321"
     sodipodi:cy="401.50601"
     sodipodi:rx="12.733914"
     sodipodi:ry="12.733914"
     d="m -546.8093,401.50601 a 12.733914,12.733914 0 1 1 -25.46783,0 12.733914,12.733914 0 1 1 25.46783,0 z" />
  <path
     transform="translate(944.55686,402.24189)"
     sodipodi:type="arc"
     style="fill:#b9f6ca;fill-opacity:0.68627450999999995;stroke:none"
     id="path3013-2"
     sodipodi:cx="-559.54321"
     sodipodi:cy="401.50601"
     sodipodi:rx="12.733914"
     sodipodi:ry="12.733914"
     d="m -546.8093,401.50601 a 12.733914,12.733914 0 1 1 -25.46783,0 12.733914,12.733914 0 1 1 25.46783,0 z" />
  <path
     transform="translate(1092.8695,453.17755)"
     sodipodi:type="arc"
     style="fill:#b9f6ca;fill-opacity:0.68627450999999995;stroke:none"
     id="path3013-19"
     sodipodi:cx="-559.54321"
     sodipodi:cy="401.50601"
     sodipodi:rx="12.733914"
     sodipodi:ry="12.733914"
     d="m -546.8093,401.50601 a 12.733914,12.733914 0 1 1 -25.46783,0 12.733914,12.733914 0 1 1 25.46783,0 z" />
  <path
     transform="translate(1218.7106,382.7665)"
     sodipodi:type="arc"
     style="fill:#b9f6ca;fill-opacity:0.68627450999999995;stroke:none"
     id="path3013-71"
     sodipodi:cx="-559.54321"
     sodipodi:cy="401.50601"
     sodipodi:rx="12.733914"
     sodipodi:ry="12.733914"
     d="m -546.8093,401.50601 a 12.733914,12.733914 0 1 1 -25.46783,0 12.733914,12.733914 0 1 1 25.46783,0 z" />
  <path
     transform="translate(964.03226,310.85733)"
     sodipodi:type="arc"
     style="fill:#b9f6ca;fill-opacity:0.68627450999999995;stroke:none"
     id="path3013-11"
     sodipodi:cx="-559.54321"
     sodipodi:cy="401.50601"
     sodipodi:rx="12.733914"
     sodipodi:ry="12.733914"
     d="m -546.8093,401.50601 a 12.733914,12.733914 0 1 1 -25.46783,0 12.733914,12.733914 0 1 1 25.46783,0 z" />
  <path
     transform="translate(883.13445,337.82327)"
     sodipodi:type="arc"
     style="fill:#b9f6ca;fill-opacity:0.68627450999999995;stroke:none"
     id="path3013-9"
     sodipodi:cx="-559.54321"
     sodipodi:cy="401.50601"
     sodipodi:rx="12.733914"
     sodipodi:ry="12.733914"
     d="m -546.8093,401.50601 a 12.733914,12.733914 0 1 1 -25.46783,0 12.733914,12.733914 0 1 1 25.46783,0 z" />
  <path
     transform="translate(1005.9793,191.00872)"
     sodipodi:type="arc"
     style="fill:#b9f6ca;fill-opacity:0.68627450999999995;stroke:none"
     id="path3013-28"
     sodipodi:cx="-559.54321"
     sodipodi:cy="401.50601"
     sodipodi:rx="12.733914"
     sodipodi:ry="12.733914"
     d="m -546.8093,401.50601 a 12.733914,12.733914 0 1 1 -25.46783,0 12.733914,12.733914 0 1 1 25.46783,0 z" />
  <path
     transform="translate(1160.2844,192.50683)"
     sodipodi:type="arc"
     style="fill:#b9f6ca;fill-opacity:0.68627450999999995;stroke:none"
     id="path3013-75"
     sodipodi:cx="-559.54321"
     sodipodi:cy="401.50601"
     sodipodi:rx="12.733914"
     sodipodi:ry="12.733914"
     d="m -546.8093,401.50601 a 12.733914,12.733914 0 1 1 -25.46783,0 12.733914,12.733914 0 1 1 25.46783,0 z" />
  <path
     transform="translate(1265.1519,107.1147)"
     sodipodi:type="arc"
     style="fill:#b9f6ca;fill-opacity:0.68627450999999995;stroke:none"
     id="path3013-92"
     sodipodi:cx="-559.54321"
     sodipodi:cy="401.50601"
     sodipodi:rx="12.733914"
     sodipodi:ry="12.733914"
     d="m -546.8093,401.50601 a 12.733914,12.733914 0 1 1 -25.46783,0 12.733914,12.733914 0 1 1 25.46783,0 z" />
  <path
     transform="translate(1125.8279,90.635516)"
     sodipodi:type="arc"
     style="fill:#b9f6ca;fill-opacity:0.68627450999999995;stroke:none"
     id="path3013-17"
     sodipodi:cx="-559.54321"
     sodipodi:cy="401.50601"
     sodipodi:rx="12.733914"
     sodipodi:ry="12.733914"
     d="m -546.8093,401.50601 a 12.733914,12.733914 0 1 1 -25.46783,0 12.733914,12.733914 0 1 1 25.46783,0 z" />
  <path
     sodipodi:type="arc"
     style="fill:#b9f6ca;fill-opacity:0.68627450999999995;stroke:none"
     id="path3013-13"
     sodipodi:cx="-559.54321"
     sodipodi:cy="401.50601"
     sodipodi:rx="12.733914"
     sodipodi:ry="12.733914"
     d="m -546.8093,401.50601 a 12.733914,12.733914 0 1 1 -25.46783,0 12.733914,12.733914 0 1 1 25.46783,0 z"
     transform="matrix(0.52941176,0,0,0.52941176,684.23862,285.57195)" />
  <path
     sodipodi:type="arc"
     style="fill:#b9f6ca;fill-opacity:0.68627450999999995;stroke:none"
     id="path3013-63"
     sodipodi:cx="-559.54321"
     sodipodi:cy="401.50601"
     sodipodi:rx="12.733914"
     sodipodi:ry="12.733914"
     d="m -546.8093,401.50601 a 12.733914,12.733914 0 1 1 -25.46783,0 12.733914,12.733914 0 1 1 25.46783,0 z"
     transform="matrix(0.52941176,0,0,0.52941176,787.60805,246.62116)" />
  <path
     sodipodi:type="arc"
     style="fill:#b9f6ca;fill-opacity:0.68627450999999995;stroke:none"
     id="path3013-0"
     sodipodi:cx="-559.54321"
     sodipodi:cy="401.50601"
     sodipodi:rx="12.733914"
     sodipodi:ry="12.733914"
     d="m -546.8093,401.50601 a 12.733914,12.733914 0 1 1 -25.46783,0 12.733914,12.733914 0 1 1 25.46783,0 z"
     transform="matrix(0.52941176,0,0,0.52941176,822.06452,367.96787)" />
  <path
     sodipodi:type="arc"
     style="fill:#b9f6ca;fill-opacity:0.68627450999999995;stroke:none"
     id="path3013-91"
     sodipodi:cx="-559.54321"
     sodipodi:cy="401.50601"
     sodipodi:rx="12.733914"
     sodipodi:ry="12.733914"
     d="m -546.8093,401.50601 a 12.733914,12.733914 0 1 1 -25.46783,0 12.733914,12.733914 0 1 1 25.46783,0 z"
     transform="matrix(0.52941176,0,0,0.52941176,923.93584,627.14048)" />
  <path
     sodipodi:type="arc"
     style="fill:#b9f6ca;fill-opacity:0.68627450999999995;stroke:none"
     id="path3013-47"
     sodipodi:cx="-559.54321"
     sodipodi:cy="401.50601"
     sodipodi:rx="12.733914"
     sodipodi:ry="12.733914"
     d="m -546.8093,401.50601 a 12.733914,12.733914 0 1 1 -25.46783,0 12.733914,12.733914 0 1 1 25.46783,0 z"
     transform="matrix(0.52941176,0,0,0.52941176,881.98882,508.78998)" />
  <path
     sodipodi:type="arc"
     style="fill:#b9f6ca;fill-opacity:0.68627450999999995;stroke:none"
     id="path3013-68"
     sodipodi:cx="-559.54321"
     sodipodi:cy="401.50601"
     sodipodi:rx="12.733914"
     sodipodi:ry="12.733914"
     d="m -546.8093,401.50601 a 12.733914,12.733914 0 1 1 -25.46783,0 12.733914,12.733914 0 1 1 25.46783,0 z"
     transform="matrix(0.11764705,0,0,0.11764705,488.29495,606.70115)" />
  <path
     sodipodi:type="arc"
     style="fill:#b9f6ca;fill-opacity:0.68627450999999995;stroke:none"
     id="path3013-16"
     sodipodi:cx="-559.54321"
     sodipodi:cy="401.50601"
     sodipodi:rx="12.733914"
     sodipodi:ry="12.733914"
     d="m -546.8093,401.50601 a 12.733914,12.733914 0 1 1 -25.46783,0 12.733914,12.733914 0 1 1 25.46783,0 z"
     transform="matrix(0.11764705,0,0,0.11764705,524.24953,687.59896)" />
  <path
     sodipodi:type="arc"
     style="fill:#b9f6ca;fill-opacity:0.68627450999999995;stroke:none"
     id="path3013-478"
     sodipodi:cx="-559.54321"
     sodipodi:cy="401.50601"
     sodipodi:rx="12.733914"
     sodipodi:ry="12.733914"
     d="m -546.8093,401.50601 a 12.733914,12.733914 0 1 1 -25.46783,0 12.733914,12.733914 0 1 1 25.46783,0 z"
     transform="matrix(0.11764705,0,0,0.11764705,757.95431,647.15005)" />
  <path
     sodipodi:type="arc"
     style="fill:#b9f6ca;fill-opacity:0.68627450999999995;stroke:none"
     id="path3013-5"
     sodipodi:cx="-559.54321"
     sodipodi:cy="401.50601"
     sodipodi:rx="12.733914"
     sodipodi:ry="12.733914"
     d="m -546.8093,401.50601 a 12.733914,12.733914 0 1 1 -25.46783,0 12.733914,12.733914 0 1 1 25.46783,0 z"
     transform="matrix(0.11764705,0,0,0.11764705,781.92404,564.75414)" />
  <path
     sodipodi:type="arc"
     style="fill:#b9f6ca;fill-opacity:0.68627450999999995;stroke:none"
     id="path3013-687"
     sodipodi:cx="-559.54321"
     sodipodi:cy="401.50601"
     sodipodi:rx="12.733914"
     sodipodi:ry="12.733914"
     d="m -546.8093,401.50601 a 12.733914,12.733914 0 1 1 -25.46783,0 12.733914,12.733914 0 1 1 25.46783,0 z"
     transform="matrix(0.11764705,0,0,0.11764705,503.27602,611.19547)" />
  <path
     sodipodi:type="arc"
     style="fill:#b9f6ca;fill-opacity:0.68627450999999995;stroke:none"
     id="path3013-99"
     sodipodi:cx="-559.54321"
     sodipodi:cy="401.50601"
     sodipodi:rx="12.733914"
     sodipodi:ry="12.733914"
     d="m -546.8093,401.50601 a 12.733914,12.733914 0 1 1 -25.46783,0 12.733914,12.733914 0 1 1 25.46783,0 z"
     transform="matrix(0.11764705,0,0,0.11764705,539.23061,668.12356)" />
  <path
     sodipodi:type="arc"
     style="fill:#b9f6ca;fill-opacity:0.68627450999999995;stroke:none"
     id="path3013-8"
     sodipodi:cx="-559.54321"
     sodipodi:cy="401.50601"
     sodipodi:rx="12.733914"
     sodipodi:ry="12.733914"
     d="m -546.8093,401.50601 a 12.733914,12.733914 0 1 1 -25.46783,0 12.733914,12.733914 0 1 1 25.46783,0 z"
     transform="matrix(0.11764705,0,0,0.11764705,539.23061,753.51569)" />
  <path
     sodipodi:type="arc"
     style="fill:#b9f6ca;fill-opacity:0.68627450999999995;stroke:none"
     id="path3013-29"
     sodipodi:cx="-559.54321"
     sodipodi:cy="401.50601"
     sodipodi:rx="12.733914"
     sodipodi:ry="12.733914"
     d="m -546.8093,401.50601 a 12.733914,12.733914 0 1 1 -25.46783,0 12.733914,12.733914 0 1 1 25.46783,0 z"
     transform="matrix(0.11764705,0,0,0.11764705,506.27224,798.45892)" />
  <path
     sodipodi:type="arc"
     style="fill:#b9f6ca;fill-opacity:0.68627450999999995;stroke:none"
     id="path3013-79"
     sodipodi:cx="-559.54321"
     sodipodi:cy="401.50601"
     sodipodi:rx="12.733914"
     sodipodi:ry="12.733914"
     d="m -546.8093,401.50601 a 12.733914,12.733914 0 1 1 -25.46783,0 12.733914,12.733914 0 1 1 25.46783,0 z"
     transform="matrix(0.11764705,0,0,0.11764705,411.89146,804.45135)" />
  <path
     sodipodi:type="arc"
     style="fill:#b9f6ca;fill-opacity:0.68627450999999995;stroke:none"
     id="path3013-89"
     sodipodi:cx="-559.54321"
     sodipodi:cy="401.50601"
     sodipodi:rx="12.733914"
     sodipodi:ry="12.733914"
     d="m -546.8093,401.50601 a 12.733914,12.733914 0 1 1 -25.46783,0 12.733914,12.733914 0 1 1 25.46783,0 z"
     transform="matrix(0.11764705,0,0,0.11764705,392.41606,746.02515)" />
  <path
     sodipodi:type="arc"
     style="fill:#b9f6ca;fill-opacity:0.68627450999999995;stroke:none"
     id="path3013-3"
     sodipodi:cx="-559.54321"
     sodipodi:cy="401.50601"
     sodipodi:rx="12.733914"
     sodipodi:ry="12.733914"
     d="m -546.8093,401.50601 a 12.733914,12.733914 0 1 1 -25.46783,0 12.733914,12.733914 0 1 1 25.46783,0 z"
     transform="matrix(0.11764705,0,0,0.11764705,429.86875,729.54597)" />
  <path
     sodipodi:type="arc"
     style="fill:#b9f6ca;fill-opacity:0.68627450999999995;stroke:none"
     id="path3013-81"
     sodipodi:cx="-559.54321"
     sodipodi:cy="401.50601"
     sodipodi:rx="12.733914"
     sodipodi:ry="12.733914"
     d="m -546.8093,401.50601 a 12.733914,12.733914 0 1 1 -25.46783,0 12.733914,12.733914 0 1 1 25.46783,0 z"
     transform="matrix(0.11764705,0,0,0.11764705,408.89525,644.15384)" />
  <path
     sodipodi:type="arc"
     style="fill:#b9f6ca;fill-opacity:0.68627450999999995;stroke:none"
     id="path3013-66"
     sodipodi:cx="-559.54321"
     sodipodi:cy="401.50601"
     sodipodi:rx="12.733914"
     sodipodi:ry="12.733914"
     d="m -546.8093,401.50601 a 12.733914,12.733914 0 1 1 -25.46783,0 12.733914,12.733914 0 1 1 25.46783,0 z"
     transform="matrix(0.11764705,0,0,0.11764705,372.94066,491.34686)" />
  <path
     sodipodi:type="arc"
     style="fill:#b9f6ca;fill-opacity:0.68627450999999995;stroke:none"
     id="path3013-688"
     sodipodi:cx="-559.54321"
     sodipodi:cy="401.50601"
     sodipodi:rx="12.733914"
     sodipodi:ry="12.733914"
     d="m -546.8093,401.50601 a 12.733914,12.733914 0 1 1 -25.46783,0 12.733914,12.733914 0 1 1 25.46783,0 z"
     transform="matrix(0.11764705,0,0,0.11764705,375.93688,437.41499)" />
  <path
     sodipodi:type="arc"
     style="fill:#b9f6ca;fill-opacity:0.68627450999999995;stroke:none"
     id="path3013-73"
     sodipodi:cx="-559.54321"
     sodipodi:cy="401.50601"
     sodipodi:rx="12.733914"
     sodipodi:ry="12.733914"
     d="m -546.8093,401.50601 a 12.733914,12.733914 0 1 1 -25.46783,0 12.733914,12.733914 0 1 1 25.46783,0 z"
     transform="matrix(0.11764705,0,0,0.11764705,420.88011,471.87147)" />
  <path
     sodipodi:type="arc"
     style="fill:#b9f6ca;fill-opacity:0.68627450999999995;stroke:none"
     id="path3013-56"
     sodipodi:cx="-559.54321"
     sodipodi:cy="401.50601"
     sodipodi:rx="12.733914"
     sodipodi:ry="12.733914"
     d="m -546.8093,401.50601 a 12.733914,12.733914 0 1 1 -25.46783,0 12.733914,12.733914 0 1 1 25.46783,0 z"
     transform="matrix(0.11764705,0,0,0.11764705,470.31766,402.95852)" />
  <path
     sodipodi:type="arc"
     style="fill:#b9f6ca;fill-opacity:0.68627450999999995;stroke:none"
     id="path3013-38"
     sodipodi:cx="-559.54321"
     sodipodi:cy="401.50601"
     sodipodi:rx="12.733914"
     sodipodi:ry="12.733914"
     d="m -546.8093,401.50601 a 12.733914,12.733914 0 1 1 -25.46783,0 12.733914,12.733914 0 1 1 25.46783,0 z"
     transform="matrix(0.11764705,0,0,0.11764705,606.64545,476.36579)" />
  <path
     sodipodi:type="arc"
     style="fill:#b9f6ca;fill-opacity:0.68627450999999995;stroke:none"
     id="path3013-27"
     sodipodi:cx="-559.54321"
     sodipodi:cy="401.50601"
     sodipodi:rx="12.733914"
     sodipodi:ry="12.733914"
     d="m -546.8093,401.50601 a 12.733914,12.733914 0 1 1 -25.46783,0 12.733914,12.733914 0 1 1 25.46783,0 z"
     transform="matrix(0.11764705,0,0,0.11764705,711.51298,426.92824)" />
  <path
     sodipodi:type="arc"
     style="fill:#b9f6ca;fill-opacity:0.68627450999999995;stroke:none"
     id="path3013-52"
     sodipodi:cx="-559.54321"
     sodipodi:cy="401.50601"
     sodipodi:rx="12.733914"
     sodipodi:ry="12.733914"
     d="m -546.8093,401.50601 a 12.733914,12.733914 0 1 1 -25.46783,0 12.733914,12.733914 0 1 1 25.46783,0 z"
     transform="matrix(0.11764705,0,0,0.11764705,756.45621,666.62545)" />
  <path
     sodipodi:type="arc"
     style="fill:#b9f6ca;fill-opacity:0.68627450999999995;stroke:none"
     id="path3013-34"
     sodipodi:cx="-559.54321"
     sodipodi:cy="401.50601"
     sodipodi:rx="12.733914"
     sodipodi:ry="12.733914"
     d="m -546.8093,401.50601 a 12.733914,12.733914 0 1 1 -25.46783,0 12.733914,12.733914 0 1 1 25.46783,0 z"
     transform="matrix(2.6470588,0,0,2.6470588,2131.3225,-350.44668)" />
  <path
     sodipodi:type="arc"
     style="fill:#b9f6ca;fill-opacity:0.68627450999999995;stroke:none"
     id="path3013-22"
     sodipodi:cx="-559.54321"
     sodipodi:cy="401.50601"
     sodipodi:rx="12.733914"
     sodipodi:ry="12.733914"
     d="m -546.8093,401.50601 a 12.733914,12.733914 0 1 1 -25.46783,0 12.733914,12.733914 0 1 1 25.46783,0 z"
     transform="matrix(2.6470588,0,0,2.6470588,2101.3603,-537.71013)" />
  <path
     sodipodi:type="arc"
     style="fill:#b9f6ca;fill-opacity:0.68627450999999995;stroke:none"
     id="path3013-33"
     sodipodi:cx="-559.54321"
     sodipodi:cy="401.50601"
     sodipodi:rx="12.733914"
     sodipodi:ry="12.733914"
     d="m -546.8093,401.50601 a 12.733914,12.733914 0 1 1 -25.46783,0 12.733914,12.733914 0 1 1 25.46783,0 z"
     transform="matrix(2.6470588,0,0,2.6470588,1797.2445,-539.20824)" />
  <path
     sodipodi:type="arc"
     style="fill:#b9f6ca;fill-opacity:0.68627450999999995;stroke:none"
     id="path3013-07"
     sodipodi:cx="-559.54321"
     sodipodi:cy="401.50601"
     sodipodi:rx="12.733914"
     sodipodi:ry="12.733914"
     d="m -546.8093,401.50601 a 12.733914,12.733914 0 1 1 -25.46783,0 12.733914,12.733914 0 1 1 25.46783,0 z"
     transform="matrix(2.6470588,0,0,2.6470588,1938.0666,-206.62835)" />
  <path
     sodipodi:type="arc"
     style="fill:#b9f6ca;fill-opacity:0.68627450999999995;stroke:none"
     id="path3013-279"
     sodipodi:cx="-559.54321"
     sodipodi:cy="401.50601"
     sodipodi:rx="12.733914"
     sodipodi:ry="12.733914"
     d="m -546.8093,401.50601 a 12.733914,12.733914 0 1 1 -25.46783,0 12.733914,12.733914 0 1 1 25.46783,0 z"
     transform="matrix(2.6470588,0,0,2.6470588,1930.5761,-419.35963)" />
  <path
     sodipodi:type="arc"
     style="fill:#b9f6ca;fill-opacity:0.68627450999999995;stroke:none"
     id="path3013-39"
     sodipodi:cx="-559.54321"
     sodipodi:cy="401.50601"
     sodipodi:rx="12.733914"
     sodipodi:ry="12.733914"
     d="m -546.8093,401.50601 a 12.733914,12.733914 0 1 1 -25.46783,0 12.733914,12.733914 0 1 1 25.46783,0 z"
     transform="matrix(2.6470588,0,0,2.6470588,2012.972,-540.70634)" />
  <path
     sodipodi:type="arc"
     style="fill:#b9f6ca;fill-opacity:0.68627450999999995;stroke:none"
     id="path3013-23"
     sodipodi:cx="-559.54321"
     sodipodi:cy="401.50601"
     sodipodi:rx="12.733914"
     sodipodi:ry="12.733914"
     d="m -546.8093,401.50601 a 12.733914,12.733914 0 1 1 -25.46783,0 12.733914,12.733914 0 1 1 25.46783,0 z"
     transform="matrix(2.6470588,0,0,2.6470588,2036.9417,-277.03941)" />
  <path
     sodipodi:type="arc"
     style="fill:#b9f6ca;fill-opacity:0.68627450999999995;stroke:none"
     id="path3013-20"
     sodipodi:cx="-559.54321"
     sodipodi:cy="401.50601"
     sodipodi:rx="12.733914"
     sodipodi:ry="12.733914"
     d="m -546.8093,401.50601 a 12.733914,12.733914 0 1 1 -25.46783,0 12.733914,12.733914 0 1 1 25.46783,0 z"
     transform="matrix(2.6470588,0,0,2.6470588,1815.2218,-321.98264)" />
  <path
     sodipodi:type="arc"
     style="fill:#b9f6ca;fill-opacity:0.68627450999999995;stroke:none"
     id="path3013-98"
     sodipodi:cx="-559.54321"
     sodipodi:cy="401.50601"
     sodipodi:rx="12.733914"
     sodipodi:ry="12.733914"
     d="m -546.8093,401.50601 a 12.733914,12.733914 0 1 1 -25.46783,0 12.733914,12.733914 0 1 1 25.46783,0 z"
     transform="matrix(1.0588235,0,0,1.0588235,1292.0737,182.37181)" />
  <path
     sodipodi:type="arc"
     style="fill:#b9f6ca;fill-opacity:0.68627450999999995;stroke:none"
     id="path3013-97"
     sodipodi:cx="-559.54321"
     sodipodi:cy="401.50601"
     sodipodi:rx="12.733914"
     sodipodi:ry="12.733914"
     d="m -546.8093,401.50601 a 12.733914,12.733914 0 1 1 -25.46783,0 12.733914,12.733914 0 1 1 25.46783,0 z"
     transform="matrix(1.0588235,0,0,1.0588235,1061.3652,333.68068)" />
  <path
     sodipodi:type="arc"
     style="fill:#b9f6ca;fill-opacity:0.68627450999999995;stroke:none"
     id="path3013-54"
     sodipodi:cx="-559.54321"
     sodipodi:cy="401.50601"
     sodipodi:rx="12.733914"
     sodipodi:ry="12.733914"
     d="m -546.8093,401.50601 a 12.733914,12.733914 0 1 1 -25.46783,0 12.733914,12.733914 0 1 1 25.46783,0 z"
     transform="matrix(1.0588235,0,0,1.0588235,1122.7876,246.79044)" />
</svg>
