<?xml version="1.0" encoding="UTF-8" standalone="no"?>
<svg
   xmlns:dc="http://purl.org/dc/elements/1.1/"
   xmlns:cc="http://creativecommons.org/ns#"
   xmlns:rdf="http://www.w3.org/1999/02/22-rdf-syntax-ns#"
   xmlns:svg="http://www.w3.org/2000/svg"
   xmlns="http://www.w3.org/2000/svg"
   xmlns:sodipodi="http://sodipodi.sourceforge.net/DTD/sodipodi-0.dtd"
   xmlns:inkscape="http://www.inkscape.org/namespaces/inkscape"
   width="150"
   height="150"
   id="svg2"
   version="1.1"
   inkscape:version="0.48.4 r9939"
   sodipodi:docname="OPEN.svg">
  <metadata
     id="metadata31">
    <rdf:RDF>
      <cc:Work
         rdf:about="">
        <dc:format>image/svg+xml</dc:format>
        <dc:type
           rdf:resource="http://purl.org/dc/dcmitype/StillImage" />
      </cc:Work>
    </rdf:RDF>
  </metadata>
  <sodipodi:namedview
     pagecolor="#ffffff"
     bordercolor="#666666"
     borderopacity="1"
     objecttolerance="10"
     gridtolerance="10"
     guidetolerance="10"
     inkscape:pageopacity="0"
     inkscape:pageshadow="2"
     inkscape:window-width="1920"
     inkscape:window-height="965"
     id="namedview29"
     showgrid="false"
     inkscape:zoom="4.4500587"
     inkscape:cx="100.95244"
     inkscape:cy="72.083448"
     inkscape:window-x="0"
     inkscape:window-y="30"
     inkscape:window-maximized="1"
     inkscape:current-layer="svg2" />
  <defs
     id="defs4">
    <filter
       id="a"
       color-interpolation-filters="sRGB">
      <feFlood
         flood-opacity=".5"
         flood-color="#000"
         result="flood"
         id="feFlood7" />
      <feComposite
         in2="SourceGraphic"
         in="flood"
         operator="in"
         result="composite1"
         id="feComposite9" />
      <feGaussianBlur
         in="composite"
         stdDeviation="6"
         result="blur"
         id="feGaussianBlur11" />
      <feOffset
         dy="5"
         result="offset"
         id="feOffset13" />
      <feComposite
         in2="offset"
         in="SourceGraphic"
         result="composite2"
         id="feComposite15" />
    </filter>
  </defs>
  <path
     d="M150 75c0 41.42-33.58 75-75 75S0 116.42 0 75 33.58 0 75 0s75 33.58 75 75z"
     fill="#ffd54f"
     id="path17"
     style="fill:#9ccc65" />
  <g
     transform="matrix(0.22332,0,0,0.22332,108.38634,26.801961)"
     id="g19"
     style="fill:#067778;filter:url(#a)">
    <path
       d="m -384.5,135.825 h 470 c 8.31,0 15,6.69 15,15 v 130 c 0,8.31 -6.69,15 -15,15 h -470 c -8.31,0 -15,-6.69 -15,-15 v -130 c 0,-8.31 6.69,-15 15,-15 z"
       id="path21"
       inkscape:connector-curvature="0" />
    <g
       style="font-size:75.9280014px;font-weight:700;line-height:125%;letter-spacing:0.44;word-spacing:0;text-anchor:middle;fill:#ffffff;font-family:Roboto;-inkscape-font-specification:Sans Bold"
       font-size="75.928"
       font-weight="700"
       letter-spacing=".44"
       word-spacing="0"
       id="g23">
      <path
         d="m -311.548,246.102 h -9.65 v -51.196 h -19.633 v 51.196 h -9.65 V 185.55 h 38.932 v 60.55 m 35.261,-13.057 h -16.89 l -3.27,13.06 h -9.75 l 16.557,-60.554 h 9.88 l 16.493,60.552 h -9.75 l -3.27,-13.06 m -14.51,-9.523 h 12.13 l -5.95,-23.79 h -0.198 l -5.982,23.79 m 42.102,0.625 v 21.96 h -9.65 v -60.554 h 19.168 c 5.53,0 9.882,1.774 13.055,5.322 3.173,3.55 4.76,8.22 4.76,14.016 0,5.794 -1.587,10.452 -4.76,13.973 -3.173,3.523 -7.524,5.283 -13.055,5.283 h -9.518 m 0,-9.357 h 9.518 c 2.688,0 4.727,-0.915 6.115,-2.745 1.388,-1.857 2.082,-4.213 2.082,-7.07 0,-2.91 -0.695,-5.31 -2.083,-7.194 -1.366,-1.913 -3.404,-2.87 -6.115,-2.87 h -9.518 v 19.88 m 60.717,18.256 h -16.887 l -3.272,13.06 h -9.75 l 16.56,-60.554 h 9.88 l 16.493,60.552 h -9.75 l -3.272,-13.06 m -14.508,-9.523 h 12.13 l -5.95,-23.79 h -0.198 l -5.982,23.79 m 45.041,-37.968 12.262,44.623 h 0.198 l 12.36,-44.624 h 12.626 V 246.1 h -9.65 v -18.05 l 0.926,-26.74 -0.2,-0.043 -12.888,44.832 h -6.478 l -12.823,-44.666 -0.2,0.04 0.927,26.576 v 18.05 h -9.65 V 185.55 h 12.59 m 76.475,33.935 h -19.93 v 17.3 h 23.3 v 9.317 h -32.95 V 185.55 h 32.883 v 9.356 H -100.9 v 15.222 h 19.93 v 9.357 m 43.587,-24.579 H -51 v 51.196 h -9.65 V 194.906 H -74.2 v -9.357 h 36.817 v 9.356 m 15.397,29.238 v 21.96 h -9.65 v -60.554 h 19.168 c 5.53,0 9.882,1.774 13.055,5.322 3.173,3.55 4.76,8.22 4.76,14.016 0,5.794 -1.587,10.452 -4.76,13.973 -3.173,3.523 -7.524,5.283 -13.055,5.283 h -9.518 m 0,-9.357 h 9.518 c 2.69,0 4.727,-0.915 6.115,-2.745 1.388,-1.857 2.082,-4.213 2.082,-7.07 0,-2.91 -0.695,-5.31 -2.083,-7.194 -1.366,-1.913 -3.404,-2.87 -6.115,-2.87 h -9.518 v 19.88 M 41.796,185.55 h 9.684 v 60.55 h -9.684 v -40.38 l -0.198,-0.042 -19.4,40.424 H 12.58 V 185.55 h 9.618 v 40.34 l 0.198,0.04 19.4,-40.38"
         style="text-align:center;line-height:0%;-inkscape-font-specification:Roboto Bold"
         id="path25"
         inkscape:connector-curvature="0" />
    </g>
  </g>
  <g
     id="g3837"
     transform="matrix(0.98728813,0,0,0.98728813,165.12236,10.529)"
     style="fill:#ffb74d" />
</svg>
